<svg id="visual" viewBox="0 0 960 540" width="960" height="540" xmlns="http://www.w3.org/2000/svg" xmlns:xlink="http://www.w3.org/1999/xlink" version="1.1"><rect x="0" y="0" width="960" height="540" fill="#000000"></rect><path d="M0 290L160 318L320 246L480 313L640 252L800 326L960 244L960 541L800 541L640 541L480 541L320 541L160 541L0 541Z" fill="#043324"></path><path d="M0 303L160 363L320 343L480 297L640 341L800 322L960 359L960 541L800 541L640 541L480 541L320 541L160 541L0 541Z" fill="#084737"></path><path d="M0 303L160 384L320 356L480 347L640 368L800 313L960 376L960 541L800 541L640 541L480 541L320 541L160 541L0 541Z" fill="#0b5b4d"></path><path d="M0 360L160 408L320 400L480 348L640 390L800 373L960 394L960 541L800 541L640 541L480 541L320 541L160 541L0 541Z" fill="#0d7164"></path><path d="M0 431L160 402L320 441L480 387L640 451L800 397L960 452L960 541L800 541L640 541L480 541L320 541L160 541L0 541Z" fill="#0d877d"></path><path d="M0 460L160 429L320 437L480 480L640 473L800 429L960 475L960 541L800 541L640 541L480 541L320 541L160 541L0 541Z" fill="#099e99"></path><path d="M0 500L160 492L320 507L480 483L640 473L800 487L960 480L960 541L800 541L640 541L480 541L320 541L160 541L0 541Z" fill="#04b6b6"></path></svg>