<svg width="118" height="127" viewBox="0 0 118 127" fill="none" xmlns="http://www.w3.org/2000/svg">
<path d="M0 119.403L14.7297 19.1264L30.0068 43.7217L76.6407 43.9322L81.8389 48.806L78.4391 61.4536L73.2798 64.5448L28.8238 64.204L19.8375 115L0 119.403Z" fill="#07CC92" fill-opacity="0.87451"/>
<path d="M30.6373 41.1087L34.9841 21.9695L98.5861 22.8684L103.553 20.8956L108.777 3.7764L105.614 0.122085L18.2161 0L15.1082 16.5969L30.6373 41.1087Z" fill="#07CC92" fill-opacity="0.87594"/>
<path d="M8.77399 126.564L23.5037 26.288L38.7808 50.8833L85.4147 51.0938L90.6128 55.9676L87.2131 68.6153L82.0538 71.7064L37.5978 71.3656L28.6115 122.162L8.77399 126.564Z" fill="#22F8B8" fill-opacity="0.87451"/>
<path d="M39.4113 48.2703L43.7581 29.1311L107.36 30.03L112.327 28.0572L117.551 10.938L114.388 7.28371L26.9901 7.16162L23.8822 23.7586L39.4113 48.2703Z" fill="#22F8B8" fill-opacity="0.87451"/>
</svg>
